<svg xmlns="http://www.w3.org/2000/svg" viewBox="0 0 512 512" width="512" height="512" role="img" aria-labelledby="lf-title"><title id="lf-title">Last Frame</title><defs><linearGradient id="lf-grad" x1="0" y1="0" x2="1" y2="1"><stop offset="0" stop-color="#7c3aed"/><stop offset="1" stop-color="#e50914"/></linearGradient><linearGradient id="lf-shine" x1="0" y1="0" x2="0" y2="1"><stop offset="0" stop-color="#fff" stop-opacity="0.38"/><stop offset="0.5" stop-color="#fff" stop-opacity="0.06"/><stop offset="1" stop-color="#fff" stop-opacity="0"/></linearGradient></defs><rect width="512" height="512" fill="#0b0b12"/><rect width="512" height="256" fill="url(#lf-shine)"/><g transform="translate(256 256) scale(6) translate(-32 -32)"><path d="M32 32L32 12A20 20 0 0 1 49.32 42z" fill="url(#lf-grad)"/><path d="M10 32a22 22 0 1 0 44 0a22 22 0 1 0 -44 0z" fill="none" stroke="url(#lf-grad)" stroke-width="4" stroke-linejoin="round" stroke-linecap="round"/><path d="M32 12v6M32 46v6M12 32h6M46 32h6" fill="none" stroke="#f4f4f8" stroke-opacity="0.35" stroke-width="1.5" stroke-linecap="round"/><path d="M29 32a3 3 0 1 0 6 0a3 3 0 1 0 -6 0z" fill="#f4f4f8"/></g></svg>
