<svg xmlns="http://www.w3.org/2000/svg" viewBox="0 0 64 64" role="img" aria-labelledby="lf-title"><title id="lf-title">Lastframe.tv Countdown mark</title><defs><linearGradient id="lf-grad" x1="0" y1="0" x2="1" y2="1"><stop offset="0" stop-color="#6f5bf5"/><stop offset="1" stop-color="#5ccbff"/></linearGradient><linearGradient id="lf-shine" x1="0" y1="0" x2="0" y2="1"><stop offset="0" stop-color="#fff" stop-opacity="0.38"/><stop offset="0.5" stop-color="#fff" stop-opacity="0.06"/><stop offset="1" stop-color="#fff" stop-opacity="0"/></linearGradient></defs><path d="M32 32L32 12A20 20 0 0 1 49.32 42z" fill="url(#lf-grad)"/><path d="M10 32a22 22 0 1 0 44 0a22 22 0 1 0 -44 0z" fill="none" stroke="url(#lf-grad)" stroke-width="4" stroke-linejoin="round" stroke-linecap="round"/><path d="M32 12v6M32 46v6M12 32h6M46 32h6" fill="none" stroke="#f4f4f8" stroke-opacity="0.35" stroke-width="1.5" stroke-linecap="round"/><path d="M29 32a3 3 0 1 0 6 0a3 3 0 1 0 -6 0z" fill="#f4f4f8"/></svg>
