<svg xmlns="http://www.w3.org/2000/svg" viewBox="0 0 64 64" width="512" height="512" role="img" aria-labelledby="lf-title"><title id="lf-title">Last Frame Frame mark</title><defs><linearGradient id="lf-grad" x1="0" y1="0" x2="1" y2="1"><stop offset="0" stop-color="#7c3aed"/><stop offset="1" stop-color="#e50914"/></linearGradient><linearGradient id="lf-shine" x1="0" y1="0" x2="0" y2="1"><stop offset="0" stop-color="#fff" stop-opacity="0.38"/><stop offset="0.5" stop-color="#fff" stop-opacity="0.06"/><stop offset="1" stop-color="#fff" stop-opacity="0"/></linearGradient></defs><path d="M17 2h30a15 15 0 0 1 15 15v30a15 15 0 0 1 -15 15h-30a15 15 0 0 1 -15 -15v-30a15 15 0 0 1 15 -15z" fill="#0b0b12"/><path d="M17 2h30a15 15 0 0 1 15 15v0a15 15 0 0 1 -15 15h-30a15 15 0 0 1 -15 -15v-0a15 15 0 0 1 15 -15z" fill="url(#lf-shine)"/><path d="M17 2.5h30a14.5 14.5 0 0 1 14.5 14.5v30a14.5 14.5 0 0 1 -14.5 14.5h-30a14.5 14.5 0 0 1 -14.5 -14.5v-30a14.5 14.5 0 0 1 14.5 -14.5z" fill="none" stroke="#fff" stroke-opacity="0.28"/><path d="M18 17h28a6 6 0 0 1 6 6v18a6 6 0 0 1 -6 6h-28a6 6 0 0 1 -6 -6v-18a6 6 0 0 1 6 -6z" fill="none" stroke="url(#lf-grad)" stroke-width="4" stroke-linejoin="round" stroke-linecap="round"/><path d="M17 21h1.5a1 1 0 0 1 1 1v1.5a1 1 0 0 1 -1 1h-1.5a1 1 0 0 1 -1 -1v-1.5a1 1 0 0 1 1 -1z" fill="#f4f4f8" fill-opacity="0.35"/><path d="M17 30.25h1.5a1 1 0 0 1 1 1v1.5a1 1 0 0 1 -1 1h-1.5a1 1 0 0 1 -1 -1v-1.5a1 1 0 0 1 1 -1z" fill="#f4f4f8" fill-opacity="0.35"/><path d="M17 39.5h1.5a1 1 0 0 1 1 1v1.5a1 1 0 0 1 -1 1h-1.5a1 1 0 0 1 -1 -1v-1.5a1 1 0 0 1 1 -1z" fill="#f4f4f8" fill-opacity="0.35"/><path d="M45.5 21h1.5a1 1 0 0 1 1 1v1.5a1 1 0 0 1 -1 1h-1.5a1 1 0 0 1 -1 -1v-1.5a1 1 0 0 1 1 -1z" fill="#f4f4f8" fill-opacity="0.35"/><path d="M45.5 30.25h1.5a1 1 0 0 1 1 1v1.5a1 1 0 0 1 -1 1h-1.5a1 1 0 0 1 -1 -1v-1.5a1 1 0 0 1 1 -1z" fill="#f4f4f8" fill-opacity="0.35"/><path d="M45.5 39.5h1.5a1 1 0 0 1 1 1v1.5a1 1 0 0 1 -1 1h-1.5a1 1 0 0 1 -1 -1v-1.5a1 1 0 0 1 1 -1z" fill="#f4f4f8" fill-opacity="0.35"/><path d="M27 25L39 32L27 39z" fill="#f4f4f8"/></svg>
